HIERARCHY
ROOT Hips
{
	OFFSET -0.001795 -0.223333 0.028219
	CHANNELS 6 Xposition Yposition Zposition Zrotation Yrotation Xrotation 
	JOINT LeftUpLeg
	{
		OFFSET 0.069520 -0.091406 -0.006815
		CHANNELS 3 Zrotation Yrotation Xrotation
		JOINT LeftLeg
		{
			OFFSET 0.034277 -0.375199 -0.004496
			CHANNELS 3 Zrotation Yrotation Xrotation
			JOINT LeftFoot
			{
				OFFSET -0.013596 -0.397961 -0.043693
				CHANNELS 3 Zrotation Yrotation Xrotation
				JOINT LeftToe
				{
					OFFSET 0.026358 -0.055791 0.119288
					CHANNELS 3 Zrotation Yrotation Xrotation
					End Site
					{
						OFFSET 0.000000 0.000000 0.000000
					}
				}
			}
		}
	}
	JOINT RightUpLeg
	{
		OFFSET -0.067670 -0.090522 -0.004320
		CHANNELS 3 Zrotation Yrotation Xrotation
		JOINT RightLeg
		{
			OFFSET -0.038290 -0.382569 -0.008850
			CHANNELS 3 Zrotation Yrotation Xrotation
			JOINT RightFoot
			{
				OFFSET 0.015774 -0.398415 -0.042312
				CHANNELS 3 Zrotation Yrotation Xrotation
				JOINT RightToe
				{
					OFFSET -0.025372 -0.048144 0.123348
					CHANNELS 3 Zrotation Yrotation Xrotation
					End Site
					{
						OFFSET 0.000000 0.000000 0.000000
					}
				}
			}
		}
	}
	JOINT Spine
	{
		OFFSET -0.002533 0.108963 -0.026696
		CHANNELS 3 Zrotation Yrotation Xrotation
		JOINT Spine1
		{
			OFFSET 0.005487 0.135180 0.001092
			CHANNELS 3 Zrotation Yrotation Xrotation
			JOINT Spine2
			{
				OFFSET 0.001457 0.052922 0.025425
				CHANNELS 3 Zrotation Yrotation Xrotation
				JOINT Neck
				{
					OFFSET -0.002778 0.213870 -0.042857
					CHANNELS 3 Zrotation Yrotation Xrotation
					JOINT Head
					{
						OFFSET 0.005152 0.064970 0.051349
						CHANNELS 3 Zrotation Yrotation Xrotation
						End Site
						{
							OFFSET 0.000000 0.000000 0.000000
						}
					}
				}
				JOINT LeftShoulder
				{
					OFFSET 0.078845 0.121749 -0.034090
					CHANNELS 3 Zrotation Yrotation Xrotation
					JOINT LeftArm
					{
						OFFSET 0.090977 0.030469 -0.008868
						CHANNELS 3 Zrotation Yrotation Xrotation
						JOINT LeftForeArm
						{
							OFFSET 0.259612 -0.012772 -0.027456
							CHANNELS 3 Zrotation Yrotation Xrotation
							JOINT LeftHand
							{
								OFFSET 0.249234 0.008986 -0.001171
								CHANNELS 3 Zrotation Yrotation Xrotation
								End Site
								{
									OFFSET 0.000000 0.000000 0.000000
								}
							}
						}
					}
				}
				JOINT RightShoulder
				{
					OFFSET -0.081759 0.118833 -0.038615
					CHANNELS 3 Zrotation Yrotation Xrotation
					JOINT RightArm
					{
						OFFSET -0.096012 0.032551 -0.009143
						CHANNELS 3 Zrotation Yrotation Xrotation
						JOINT RightForeArm
						{
							OFFSET -0.253742 -0.013329 -0.021401
							CHANNELS 3 Zrotation Yrotation Xrotation
							JOINT RightHand
							{
								OFFSET -0.255298 0.007772 -0.005559
								CHANNELS 3 Zrotation Yrotation Xrotation
								End Site
								{
									OFFSET 0.000000 0.000000 0.000000
								}
							}
						}
					}
				}
			}
		}
	}
}
MOTION
Frames: 14
Frame Time: 0.050000
0.000000 0.944476 0.000000 -0.482822 -9.665494 7.170583 7.603191 -0.232918 -9.338183 -1.555609 0.165938 2.777514 6.426809 14.100204 14.688980 0.000000 0.000000 0.000000 -9.758085 0.824036 -9.935318 6.821226 -0.607640 6.687798 -6.161312 -16.768179 8.632112 0.000000 0.000000 0.000000 4.693001 -1.336185 17.926137 -6.412635 2.075634 -18.758151 2.187614 13.595111 26.765486 20.261116 -11.096994 -19.993936 0.000000 0.000000 0.000000 11.350085 -14.596373 4.549536 -31.578524 -13.230369 -2.217966 -96.415864 -73.737085 80.721959 0.000000 0.000000 0.000000 2.480625 14.344148 5.689869 53.600314 64.058878 27.489944 4.395414 76.789202 10.636803 0.000000 0.000000 0.000000 
-0.000672 0.943435 -0.005612 -0.238476 -9.487420 8.167989 7.896548 -0.244791 -10.230424 -2.070133 0.246218 2.083968 6.156553 13.685719 14.369241 0.000000 0.000000 0.000000 -9.430420 0.918401 -12.324988 6.651742 -0.596015 8.430590 -6.868000 -18.202420 9.116378 0.000000 0.000000 0.000000 4.775053 -1.370763 17.810965 -5.225831 1.768468 -16.638161 1.671641 13.522697 25.540084 21.620437 -12.837015 -17.548801 0.000000 0.000000 0.000000 9.022331 -13.514447 4.392613 -30.373932 -11.108677 -2.505443 -99.952411 -69.435580 79.489826 0.000000 0.000000 0.000000 4.272054 14.693338 6.196716 53.801294 62.192142 26.248382 -6.337243 76.282601 2.209066 0.000000 0.000000 0.000000 
-0.000659 0.941908 -0.011283 0.514399 -7.610045 8.610089 7.871290 -0.317309 -11.727650 -3.113040 0.386585 3.222802 6.115449 13.741176 12.658751 0.000000 0.000000 0.000000 -10.432391 0.837891 -12.422790 7.283542 -0.741294 8.247313 -7.507094 -19.261448 8.878122 0.000000 0.000000 0.000000 5.034380 -1.562266 19.175254 -4.129819 1.475571 -16.588145 0.522925 12.643050 25.936690 21.046326 -11.964557 -18.789748 0.000000 0.000000 0.000000 8.264908 -12.745650 4.226288 -32.364461 -12.766015 -2.343265 -92.697691 -67.610855 70.599964 0.000000 0.000000 0.000000 4.236324 14.521074 6.181810 54.884964 59.362427 24.964466 -8.370961 71.727261 0.811615 0.000000 0.000000 0.000000 
-0.000239 0.941326 -0.017295 0.786222 -7.620546 8.950318 8.315625 -0.289680 -12.529995 -3.325559 0.418595 3.212447 5.877033 13.431410 13.780436 0.000000 0.000000 0.000000 -10.882834 0.853774 -13.627215 8.077401 -0.877408 9.083642 -7.971565 -20.167200 9.262677 0.000000 0.000000 0.000000 5.544623 -1.776856 20.887877 -4.108185 1.476272 -15.997795 0.998807 12.242402 25.754152 21.930804 -12.174236 -19.940765 0.000000 0.000000 0.000000 7.696493 -13.579587 4.437163 -36.028528 -12.291020 -2.643099 -91.909186 -66.068710 68.812502 0.000000 0.000000 0.000000 5.449949 14.519419 6.397810 53.370108 58.673978 23.418430 -11.162226 64.426386 -1.306729 0.000000 0.000000 0.000000 
0.000651 0.940595 -0.023338 1.143842 -7.161178 9.343701 8.157796 -0.333277 -13.121736 -3.508196 0.440759 3.171967 5.944459 13.585103 13.723276 0.000000 0.000000 0.000000 -11.355600 0.834095 -14.269112 8.285073 -0.921708 8.858861 -8.465377 -21.105743 10.231738 0.000000 0.000000 0.000000 6.420129 -2.135851 22.913589 -3.554426 1.310736 -16.536132 0.834599 11.897051 26.182269 22.645209 -12.214718 -21.256081 0.000000 0.000000 0.000000 5.150587 -14.318636 4.683567 -38.262843 -12.677012 -2.665583 -88.260075 -65.244828 64.982319 0.000000 0.000000 0.000000 6.891595 14.851780 6.844295 52.169568 58.207231 22.195248 -16.087889 54.969521 -3.739618 0.000000 0.000000 0.000000 
0.001559 0.940753 -0.029909 1.908698 -6.074165 9.860378 7.928327 -0.411723 -13.776272 -3.703476 0.454407 2.711103 5.417343 13.001689 15.020560 0.000000 0.000000 0.000000 -12.263568 0.754938 -14.875830 8.514611 -0.986983 8.445376 -8.895731 -21.833875 10.831405 0.000000 0.000000 0.000000 6.909698 -2.437533 24.439438 -3.447361 1.300750 -16.544894 1.231628 11.425840 25.836697 22.804365 -11.754067 -22.730198 0.000000 0.000000 0.000000 2.403343 -16.543781 5.431119 -40.044832 -13.502992 -2.442521 -82.342994 -65.631453 60.333743 0.000000 0.000000 0.000000 7.680962 15.852366 7.471590 48.643158 57.125550 19.549348 -17.337298 44.914139 -3.749738 0.000000 0.000000 0.000000 
0.002288 0.941151 -0.036591 2.395608 -5.986068 10.333010 7.776925 -0.450014 -14.815658 -3.916502 0.484573 2.812694 5.243724 12.813244 15.717443 0.000000 0.000000 0.000000 -12.498664 0.751877 -15.871626 8.427372 -0.974760 8.390551 -9.019683 -22.080231 11.164253 0.000000 0.000000 0.000000 7.532345 -2.739735 26.022968 -3.196248 1.222685 -17.232544 1.620863 11.166094 26.325096 23.471420 -11.902985 -23.735519 0.000000 0.000000 0.000000 0.283859 -16.710600 5.575550 -41.939643 -13.132988 -2.646287 -75.109110 -65.441683 54.350736 0.000000 0.000000 0.000000 8.537037 16.750241 8.036993 44.591968 57.003581 17.147305 -14.903289 34.142148 -2.363324 0.000000 0.000000 0.000000 
0.002583 0.941336 -0.042895 2.801218 -5.790011 10.796679 7.639586 -0.494095 -16.081196 -3.918718 0.484872 3.241844 4.791543 12.195803 16.064091 0.000000 0.000000 0.000000 -12.965695 0.722436 -17.020097 8.683619 -1.032733 8.736161 -9.107976 -22.254295 11.835035 0.000000 0.000000 0.000000 7.773661 -2.942093 27.341851 -2.622545 1.059766 -17.505725 1.907343 11.353135 25.910860 23.023380 -11.466031 -23.844035 0.000000 0.000000 0.000000 -2.183407 -17.368585 5.879926 -42.983431 -12.180889 -2.899423 -66.943896 -65.860657 48.058960 0.000000 0.000000 0.000000 9.167466 16.389692 8.083238 42.948273 54.724914 15.176230 -13.768908 28.474400 -1.753330 0.000000 0.000000 0.000000 
0.002494 0.941584 -0.047800 2.814951 -5.903667 11.146293 7.698122 -0.492303 -16.872649 -3.809005 0.470112 3.347786 4.786533 12.197794 16.315437 0.000000 0.000000 0.000000 -12.957334 0.739426 -17.985533 8.752791 -1.046115 8.982359 -9.047223 -22.187552 12.145272 0.000000 0.000000 0.000000 8.256861 -3.149090 28.128323 -2.468471 1.010877 -17.915648 2.342735 10.807655 26.006095 22.232566 -11.052912 -23.760920 0.000000 0.000000 0.000000 -3.693200 -16.642912 5.721856 -44.151569 -10.349358 -3.544029 -59.745633 -65.018639 42.142144 0.000000 0.000000 0.000000 10.213668 16.835308 8.423433 40.324390 51.684502 12.372732 -12.066287 25.266430 -1.279907 0.000000 0.000000 0.000000 
0.002279 0.941658 -0.050818 3.080912 -6.015173 11.185087 7.786824 -0.479797 -17.285936 -3.997932 0.503361 3.713613 4.778581 12.178364 16.374306 0.000000 0.000000 0.000000 -13.044968 0.739031 -18.627422 9.024425 -1.095702 9.271593 -9.332898 -22.700967 12.347280 0.000000 0.000000 0.000000 8.324653 -3.244282 29.140950 -1.877439 0.852397 -18.501323 2.225810 10.699977 26.119197 21.200030 -10.255582 -24.070899 0.000000 0.000000 0.000000 -3.977554 -15.707132 5.386945 -45.400284 -7.857972 -4.485858 -59.177680 -63.707188 40.793847 0.000000 0.000000 0.000000 10.438564 15.983686 8.064120 41.473136 47.681516 11.085956 -11.789210 25.925627 -1.222896 0.000000 0.000000 0.000000 
0.002410 0.942252 -0.051919 3.071032 -6.131409 11.166297 7.570573 -0.501205 -17.391763 -3.822727 0.482237 4.233622 4.692246 12.032789 16.363873 0.000000 0.000000 0.000000 -13.187589 0.732493 -18.832282 8.965543 -1.081934 9.264274 -9.394660 -22.816665 12.728618 0.000000 0.000000 0.000000 8.771227 -3.352665 28.964333 -2.178685 0.926681 -18.162963 2.369912 10.090167 25.911044 19.762098 -9.397562 -24.170810 0.000000 0.000000 0.000000 -4.496047 -14.609685 5.041394 -45.881491 -4.985234 -5.517154 -64.637292 -61.202086 43.118262 0.000000 0.000000 0.000000 12.115575 15.080036 7.838092 40.973598 43.111010 8.818341 -10.026864 27.986875 -0.918970 0.000000 0.000000 0.000000 
0.003295 0.943001 -0.051743 3.247748 -6.136098 10.991677 6.963022 -0.575659 -17.020427 -3.717415 0.468232 4.556490 4.973901 12.409387 15.885110 0.000000 0.000000 0.000000 -13.398896 0.707494 -18.668066 8.780623 -1.056465 9.422892 -9.451503 -22.903754 12.800543 0.000000 0.000000 0.000000 9.087893 -3.449337 29.095062 -2.227253 0.942308 -18.565743 2.245416 10.030350 26.211879 19.418463 -9.348296 -23.758150 0.000000 0.000000 0.000000 -5.026013 -14.102936 4.863456 -45.415902 -1.806527 -6.579755 -71.227229 -58.403007 45.613687 0.000000 0.000000 0.000000 12.994445 13.874032 7.392302 40.777767 38.293199 6.761410 -7.901152 31.651101 -0.448213 0.000000 0.000000 0.000000 
0.004811 0.943871 -0.051008 3.453495 -6.360201 10.827998 6.388703 -0.636855 -16.851497 -3.517424 0.440896 4.865443 5.122849 12.600018 15.815495 0.000000 0.000000 0.000000 -13.482622 0.707757 -18.499832 8.193678 -0.948378 9.257585 -9.656728 -23.258808 13.110653 0.000000 0.000000 0.000000 9.539838 -3.524249 28.761100 -2.693505 1.062336 -18.446228 2.301211 9.835061 26.040721 18.695039 -8.994940 -23.559619 0.000000 0.000000 0.000000 -6.368990 -13.702562 4.757282 -44.209527 1.062230 -7.304633 -79.582999 -54.801929 48.632666 0.000000 0.000000 0.000000 13.707102 12.393894 6.695527 40.065250 34.304508 5.050441 -5.046176 33.667327 0.326106 0.000000 0.000000 0.000000 
0.006693 0.944622 -0.050446 3.599083 -6.293532 10.711958 5.834158 -0.702462 -16.615021 -3.341240 0.410514 4.786477 5.034524 12.448251 15.519401 0.000000 0.000000 0.000000 -13.623277 0.687593 -18.336056 8.011082 -0.926359 9.554695 -9.737238 -23.386309 12.994778 0.000000 0.000000 0.000000 9.974672 -3.631597 28.591566 -2.431154 0.994473 -18.780274 2.352052 9.772355 26.204861 18.202558 -8.392601 -24.591289 0.000000 0.000000 0.000000 -6.264596 -13.286875 4.590242 -44.847630 2.189238 -7.807429 -84.869119 -51.528950 49.518763 0.000000 0.000000 0.000000 13.404787 11.393427 6.146662 39.812676 32.350303 4.290925 -3.988968 34.048873 0.649143 0.000000 0.000000 0.000000 
